<svg clip-rule="evenodd" fill-rule="evenodd" height="1em" stroke-linejoin="round" stroke-miterlimit="2" viewBox="0 0 90 80" xmlns="http://www.w3.org/2000/svg"><g transform="matrix(1.01883 0 0 -1.01883 -243.835 104.163)"><path d="m239.33 95.036c0 2.96 2.46 5.361 5.495 5.361h63.376c3.036 0 5.496-2.401 5.496-5.361v-64.117c0-2.961-2.46-5.361-5.496-5.361h-63.376c-3.035 0-5.495 2.4-5.495 5.361z" fill="#069" fill-rule="nonzero"/><path d="m261.873 37.749v33.794h-11.233v-33.794zm-5.617 38.408c3.917 0 6.356 2.595 6.356 5.838-.073 3.316-2.439 5.839-6.281 5.839-3.843 0-6.355-2.523-6.355-5.839 0-3.243 2.438-5.838 6.207-5.838z" fill="#fff"/><path d="m268.088 37.749h11.233v18.872c0 1.01.072 2.019.369 2.741.812 2.018 2.66 4.108 5.763 4.108 4.065 0 5.691-3.099 5.691-7.642v-18.079h11.231v19.377c0 10.38-5.541 15.21-12.931 15.21-6.06 0-8.72-3.387-10.198-5.694h.075v4.901h-11.233c.148-3.171 0-33.794 0-33.794z" fill="#fff"/></g><path d="m.37-.728c.062 0 .122.016.181.048.059.031.105.077.138.136s.049.12.049.185c0 .063-.016.124-.048.183-.033.058-.078.104-.137.136-.058.033-.119.049-.183.049s-.125-.016-.183-.049c-.059-.032-.104-.078-.137-.136-.032-.059-.049-.12-.049-.183 0-.065.017-.126.05-.185s.079-.105.138-.136c.059-.032.119-.048.181-.048zm0 .061c-.052 0-.102.013-.151.04-.049.026-.087.064-.115.114-.028.049-.041.1-.041.154 0 .053.013.104.04.152.027.049.065.087.114.114s.1.041.153.041.104-.014.153-.041.087-.065.114-.114c.027-.048.04-.099.04-.152 0-.054-.014-.105-.041-.154-.028-.05-.066-.088-.115-.114-.049-.027-.099-.04-.151-.04zm-.162.511v-.396h.137c.046 0 .08.003.101.011.021.007.037.02.05.038.012.018.018.038.018.058 0 .029-.01.054-.031.076-.021.021-.048.033-.082.036.014.006.025.013.034.021.016.016.035.042.058.079l.049.077h-.079l-.035-.062c-.027-.049-.05-.08-.067-.093-.011-.009-.028-.013-.051-.013h-.038v.168zm.064-.223h.078c.037 0 .063-.005.076-.017.014-.011.02-.025.02-.043 0-.012-.003-.023-.009-.032-.007-.009-.016-.016-.028-.021-.011-.004-.033-.007-.064-.007h-.073z" fill="#069" fill-rule="nonzero" transform="matrix(16 0 0 16 77 77.5849)"/></svg>