<svg clip-rule="evenodd" fill-rule="evenodd" height="1em" stroke-linejoin="round" stroke-miterlimit="2" viewBox="0 0 27 32" xmlns="http://www.w3.org/2000/svg"><path d="m824.666 779.304c-15.123 34.937-33.023 67.096-53.763 96.663-28.271 40.308-51.419 68.208-69.258 83.702-27.653 25.431-57.282 38.455-89.009 39.196-22.777 0-50.246-6.481-82.22-19.629-32.079-13.086-61.56-19.567-88.516-19.567-28.271 0-58.591 6.481-91.022 19.567-32.48 13.148-58.646 19.999-78.652 20.678-30.425 1.296-60.751-12.098-91.022-40.245-19.32-16.852-43.486-45.74-72.436-86.665-31.06-43.702-56.597-94.379-76.602-152.155-21.426-62.406-32.166-122.836-32.166-181.341 0-67.016 14.481-124.817 43.486-173.254 22.796-38.906 53.122-69.596 91.078-92.126 37.955-22.531 78.967-34.012 123.132-34.746 24.166 0 55.856 7.475 95.238 22.166 39.27 14.74 64.485 22.215 75.541 22.215 8.265 0 36.276-8.74 83.763-26.166 44.906-16.16 82.806-22.851 113.854-20.215 84.133 6.79 147.341 39.955 189.377 99.707-75.245 45.591-112.466 109.447-111.725 191.364.679 63.807 23.827 116.904 69.319 159.063 20.617 19.568 43.641 34.691 69.257 45.431-5.555 16.111-11.419 31.542-17.654 46.357zm-192.957-759.298c0 50.011-18.271 96.707-54.689 139.928-43.95 51.381-97.109 81.071-154.755 76.386-.735-6-1.16-12.314-1.16-18.95 0-48.011 20.9-99.392 58.016-141.403 18.531-21.271 42.098-38.957 70.677-53.066 28.518-13.899 55.492-21.585 80.862-22.901.741 6.686 1.049 13.372 1.049 20.005z" fill="#fff" fill-rule="nonzero" transform="scale(.032)"/></svg>