<svg id="Ebene_1" data-name="Ebene 1" xmlns="http://www.w3.org/2000/svg" xmlns:xlink="http://www.w3.org/1999/xlink" viewBox="0 0 40 40"><defs><clipPath id="clip-path"><rect width="40" height="40" fill="none"/></clipPath></defs><g clip-path="url(#clip-path)"><rect width="40" height="40" fill="#e43535"/><polygon points="20.03 20.56 -7.68 48.92 12.41 48.92 40 20.56 11.59 -8.92 -8.43 -8.92 20.03 20.56" fill="#d43431"/></g><path d="M8.52,20.34a6.57,6.57,0,0,1,8.91,2.81,2.52,2.52,0,0,1,.67,1.52l0,0a2.53,2.53,0,0,1,5-.21l.07,0a2.53,2.53,0,0,1,1.22-1.8,8.53,8.53,0,0,0-5.2-5.83,5.94,5.94,0,0,0,2.89-5A6.08,6.08,0,0,0,16,5.8a6.08,6.08,0,0,0-6.24,5.92,6,6,0,0,0,2.91,5.15A8.32,8.32,0,0,0,8.52,20.34Z" fill="#fff"/><path d="M21.42,16.86A8.29,8.29,0,0,1,26,22.36a2.53,2.53,0,0,1,1.86,1.22l.38.21h.22a2.52,2.52,0,0,1,3.46-1.16c.18-3.39-.64-6.94-4.17-8.34a4.31,4.31,0,0,0,2.11-3.74c0-4-5.17-5.7-7.87-2.93C24.69,10.08,23.83,15,21.42,16.86Z" fill="#fff"/><path d="M33.17,25.55a2.53,2.53,0,0,0-4.74-.2l-.55-.3a2.53,2.53,0,0,0-4.68.9l-.07,0a2.53,2.53,0,0,0-5,.21h0a2.52,2.52,0,0,0-.67-1.52,6.58,6.58,0,1,0,0,6H31.73L35,26.79ZM8.71,29.27a1.64,1.64,0,1,1,1.64-1.64A1.64,1.64,0,0,1,8.71,29.27Zm23.34-.47a.35.35,0,0,1-.34.36H19a.35.35,0,0,1-.34-.36v-.21a.35.35,0,0,1,.34-.36H31.72a.35.35,0,0,1,.34.36Z" fill="#fff" fill-rule="evenodd"/></svg>